<?xml version="1.0" standalone="no"?>
<!DOCTYPE svg PUBLIC "-//W3C//DTD SVG 20010904//EN"
 "http://www.w3.org/TR/2001/REC-SVG-20010904/DTD/svg10.dtd">
<svg version="1.0" xmlns="http://www.w3.org/2000/svg"
 width="966.000000pt" height="1280.000000pt" viewBox="0 0 966.000000 1280.000000"
 preserveAspectRatio="xMidYMid meet">
<metadata>
Created by potrace 1.15, written by Peter Selinger 2001-2017
</metadata>
<g transform="translate(0.000000,1280.000000) scale(0.100000,-0.100000)"
fill="#000000" stroke="none">
<path d="M8990 12754 c-61 -45 -62 -47 -57 -85 5 -42 52 -126 79 -143 12 -7
29 -7 58 1 39 10 42 9 52 -13 7 -15 8 -28 2 -32 -5 -5 -58 -48 -117 -97 l-109
-88 -20 21 -21 20 22 28 c11 14 21 37 21 50 0 28 -93 132 -126 140 -35 9 -154
-77 -154 -112 0 -26 42 -117 68 -146 17 -20 63 -24 92 -8 16 9 22 5 35 -20 15
-30 15 -30 -22 -63 -21 -17 -60 -52 -88 -77 -101 -90 -89 -83 -115 -62 l-24
19 22 28 c35 44 29 70 -33 131 -70 68 -90 69 -167 9 -68 -53 -72 -74 -32 -144
52 -91 77 -105 133 -77 26 14 28 13 44 -13 l17 -28 -98 -89 c-153 -139 -137
-127 -161 -112 -26 16 -26 23 -1 55 31 40 25 62 -34 120 -77 73 -94 76 -163
22 -77 -60 -81 -68 -58 -120 11 -23 32 -60 48 -82 26 -35 32 -39 65 -35 20 3
44 8 53 12 11 5 19 -1 28 -21 13 -28 12 -29 -85 -120 -54 -51 -101 -93 -104
-93 -3 1 -15 9 -28 20 l-22 18 21 36 c12 21 18 43 14 55 -6 21 -78 83 -121
106 -35 18 -61 5 -123 -58 -53 -55 -51 -76 14 -160 49 -61 66 -67 116 -41 17
8 32 14 33 12 36 -49 39 -43 -53 -131 -166 -158 -153 -148 -179 -127 -22 18
-22 20 -8 49 9 17 16 39 16 50 0 23 -72 95 -118 117 -33 15 -35 15 -74 -12
-49 -34 -88 -84 -88 -111 0 -38 90 -153 119 -153 9 0 29 7 45 15 37 20 40 19
56 -10 12 -22 11 -27 -5 -45 -17 -18 -17 -34 -11 -190 6 -162 6 -172 -14 -199
-24 -35 -25 -40 -4 -55 13 -10 -2 -36 -107 -186 -67 -96 -126 -179 -131 -185
-5 -6 -15 -5 -28 3 -16 10 -22 8 -35 -11 -14 -20 -14 -23 4 -37 18 -14 12 -25
-139 -240 -87 -124 -167 -229 -177 -235 -22 -12 -37 -34 -39 -56 -1 -9 -66
-109 -145 -223 -112 -161 -148 -205 -161 -201 -10 3 -27 8 -37 11 -31 9 -38
-32 -10 -55 l22 -18 -173 -247 c-155 -221 -176 -247 -196 -242 -31 8 -54 -29
-30 -47 13 -10 -9 -46 -147 -244 -139 -198 -165 -231 -183 -227 -24 6 -37 -15
-29 -49 6 -29 -313 -482 -339 -482 -24 0 -49 -35 -36 -50 7 -9 -49 -96 -191
-298 -176 -252 -203 -286 -219 -277 -25 14 -28 13 -40 -11 -9 -17 -8 -23 7
-34 17 -13 17 -14 -3 -42 -11 -15 -82 -117 -158 -225 l-138 -197 -25 16 c-13
9 -25 14 -26 12 -2 -2 -9 -12 -16 -21 -12 -16 -10 -20 10 -37 l23 -18 -164
-234 c-90 -129 -165 -236 -167 -239 -2 -2 -13 2 -25 9 -19 12 -23 11 -35 -5
-17 -23 -16 -33 2 -40 8 -4 15 -10 15 -15 0 -5 -82 -126 -182 -269 l-182 -259
-28 15 c-25 13 -28 13 -39 -8 -10 -18 -8 -24 11 -38 l23 -17 -33 -47 c-38 -52
-37 -52 -118 -3 -282 169 -449 468 -468 842 -8 143 4 262 51 525 49 270 45
354 -17 412 -42 40 -119 39 -203 0 -229 -109 -545 -476 -636 -739 -45 -130
-53 -223 -69 -758 -14 -464 -45 -653 -142 -853 -41 -87 -62 -117 -126 -181
-135 -137 -275 -203 -764 -362 -514 -167 -712 -250 -908 -380 -333 -221 -510
-564 -527 -1024 -13 -362 77 -732 274 -1126 232 -464 554 -824 950 -1062 282
-169 601 -300 904 -371 223 -52 307 -61 587 -61 227 0 262 -2 262 -15 0 -33
49 -117 90 -154 108 -97 297 -131 474 -86 172 44 258 116 543 453 316 376 514
557 687 630 299 127 727 -91 1147 -586 l24 -28 38 31 37 32 -62 81 c-35 45
-115 133 -178 197 -251 252 -522 410 -754 439 -110 13 -182 0 -291 -54 -188
-93 -373 -262 -722 -661 -112 -128 -232 -259 -268 -291 -194 -179 -461 -199
-613 -47 -72 70 -68 82 33 106 515 120 1035 502 1249 917 146 283 170 550 91
1006 -42 244 -48 379 -20 460 55 160 182 362 300 480 98 98 207 173 433 299
274 152 368 223 475 357 107 133 242 417 261 551 14 96 -39 148 -137 133 -23
-4 -109 -29 -192 -57 l-150 -50 -180 5 c-143 4 -202 10 -285 30 -153 36 -315
102 -379 154 l-24 19 107 163 c58 89 110 160 115 156 13 -8 43 37 32 48 -5 5
67 124 167 278 l176 269 24 -16 c13 -8 25 -14 26 -12 1 2 8 11 16 21 12 17 11
21 -10 37 l-23 18 40 63 c169 267 275 420 288 415 21 -7 48 34 34 51 -9 10 23
65 131 230 79 120 153 228 166 240 13 12 24 29 24 37 0 27 376 591 394 591 21
0 37 25 30 47 -3 12 43 93 137 235 78 120 153 234 168 253 14 19 35 51 46 71
59 108 302 468 317 468 16 1 32 30 26 48 -5 14 324 513 338 513 16 0 26 16 29
45 5 37 276 445 296 445 22 0 42 33 29 46 -13 13 300 493 316 487 15 -5 36 30
29 49 -2 7 49 94 114 193 105 159 121 180 143 177 18 -1 28 4 35 21 10 20 26
27 120 45 168 34 325 81 405 120 63 32 76 43 96 83 30 60 64 215 106 484 58
369 96 513 167 630 36 61 120 163 262 321 106 116 141 180 134 237 -8 59 -78
196 -131 254 -25 28 -66 61 -89 72 -57 28 -139 28 -192 1 -39 -20 -40 -20 -59
-1 -18 19 -18 20 3 49 11 17 21 40 21 51 0 29 -109 141 -137 141 -11 0 -49
-21 -83 -46z"/>
</g>
</svg>
